<svg xmlns="http://www.w3.org/2000/svg" width="128" height="128" viewBox="0 0 128 128">
  <defs>
    <linearGradient id="gradient" x1="0%" y1="0%" x2="100%" y2="100%">
      <stop offset="0%" style="stop-color:#8B4513;stop-opacity:1" />
      <stop offset="100%" style="stop-color:#D2691E;stop-opacity:1" />
    </linearGradient>
  </defs>
  
  <!-- Background circle -->
  <circle cx="64" cy="64" r="60" fill="url(#gradient)" stroke="#F4A460" stroke-width="4"/>
  
  <!-- Coffee cup -->
  <path d="M35 45 Q35 40 40 40 L75 40 Q80 40 80 45 L80 75 Q80 85 70 85 L45 85 Q35 85 35 75 Z" fill="#FFF8DC" stroke="#8B4513" stroke-width="2"/>
  
  <!-- Coffee -->
  <ellipse cx="57.5" cy="50" rx="18" ry="3" fill="#8B4513"/>
  
  <!-- Handle -->
  <path d="M80 55 Q90 55 90 65 Q90 75 80 75" fill="none" stroke="#8B4513" stroke-width="3" stroke-linecap="round"/>
  
  <!-- Steam -->
  <path d="M45 35 Q45 30 47 32 Q49 28 51 32 Q53 30 55 35" fill="none" stroke="#D2691E" stroke-width="2" stroke-linecap="round"/>
  <path d="M60 35 Q60 30 62 32 Q64 28 66 32 Q68 30 70 35" fill="none" stroke="#D2691E" stroke-width="2" stroke-linecap="round"/>
  
  <!-- Letter "C" for Chantilly -->
  <text x="64" y="108" font-family="serif" font-size="24" font-weight="bold" text-anchor="middle" fill="#8B4513">C</text>
</svg>
